<?xml version="1.0" encoding="utf-8"?>
<!-- Generator: Adobe Illustrator 23.0.3, SVG Export Plug-In . SVG Version: 6.00 Build 0)  -->
<svg version="1.1" id="レイヤー_1" xmlns="http://www.w3.org/2000/svg" xmlns:xlink="http://www.w3.org/1999/xlink" x="0px"
	 y="0px" viewBox="0 0 24 24" style="enable-background:new 0 0 24 24;" xml:space="preserve">
<style type="text/css">
	.st0{fill:none;}
	.st1{fill:#FFFFFF;}
</style>
<path class="st0" d="M0,0h24v24H0V0z"/>
<path class="st1" d="M4,4h16v12H5.2L4,17.2V4 M4,2C2.9,2,2,2.9,2,4l0,18l4-4h14c1.1,0,2-0.9,2-2V4c0-1.1-0.9-2-2-2H4z M6,12h8v2H6
	V12z M6,9h12v2H6V9z M6,6h12v2H6V6z"/>
</svg>
